<mxfile host="app.diagrams.net" modified="2023-08-16T01:23:29.436Z" agent="Mozilla/5.0 (Windows NT 10.0; Win64; x64) AppleWebKit/537.36 (KHTML, like Gecko) Chrome/115.0.0.0 Safari/537.36" version="21.5.2" etag="1hUqrPS-hrJlJMP7iptC" type="github">
  <diagram name="第 1 页" id="JDY-mIcXNNvNOXGqkoDx">
    <mxGraphModel>
      <root>
        <mxCell id="0" />
        <mxCell id="1" parent="0" />
      </root>
    </mxGraphModel>
  </diagram>
</mxfile>
